<svg xmlns="http://www.w3.org/2000/svg" width="800" height="575" viewBox="0 0 800 575">
  <style>
    text { font-family: -apple-system, BlinkMacSystemFont, "Segoe UI", Helvetica, Arial, sans-serif; }
    .title { font-size: 16px; font-weight: 600; fill: #24292f; }
    .label { font-size: 12px; fill: #24292f; }
    .value { font-size: 11px; fill: #57606a; }
    .axis-label { font-size: 11px; fill: #57606a; }
    .legend-text { font-size: 12px; fill: #24292f; }
    .grid { stroke: #d0d7de; stroke-width: 0.5; }
  </style>
  <rect width="100%" height="100%" fill="white"/>
  <text x="400.0" y="25" text-anchor="middle" class="title">Binary Encode Throughput</text>
  <rect x="140" y="35" width="14" height="14" rx="2" fill="#4C78A8"/>
  <text x="158" y="46" class="legend-text">buffa</text>
  <rect x="209.5" y="35" width="14" height="14" rx="2" fill="#F58518"/>
  <text x="227.5" y="46" class="legend-text">prost</text>
  <rect x="279.0" y="35" width="14" height="14" rx="2" fill="#E45756"/>
  <text x="297.0" y="46" class="legend-text">protobuf-v4</text>
  <rect x="393.5" y="35" width="14" height="14" rx="2" fill="#54A24B"/>
  <text x="411.5" y="46" class="legend-text">Go</text>
  <line x1="140.0" y1="80" x2="140.0" y2="540" class="grid"/>
  <text x="140.0" y="555" text-anchor="middle" class="axis-label">0</text>
  <line x1="256.0" y1="80" x2="256.0" y2="540" class="grid"/>
  <text x="256.0" y="555" text-anchor="middle" class="axis-label">1.0k</text>
  <line x1="372.0" y1="80" x2="372.0" y2="540" class="grid"/>
  <text x="372.0" y="555" text-anchor="middle" class="axis-label">2.0k</text>
  <line x1="488.0" y1="80" x2="488.0" y2="540" class="grid"/>
  <text x="488.0" y="555" text-anchor="middle" class="axis-label">3.0k</text>
  <line x1="604.0" y1="80" x2="604.0" y2="540" class="grid"/>
  <text x="604.0" y="555" text-anchor="middle" class="axis-label">4.0k</text>
  <line x1="720.0" y1="80" x2="720.0" y2="540" class="grid"/>
  <text x="720.0" y="555" text-anchor="middle" class="axis-label">5.0k</text>
  <text x="430.0" y="570" text-anchor="middle" class="axis-label">MiB/s</text>
  <text x="130" y="134.0" text-anchor="end" class="label">ApiResponse</text>
  <rect x="140" y="80.0" width="305.9" height="22" rx="2" fill="#4C78A8"/>
  <text x="449.9" y="95.0" class="value">2,637</text>
  <rect x="140" y="106.0" width="203.6" height="22" rx="2" fill="#F58518"/>
  <text x="347.6" y="121.0" class="value">1,755</text>
  <rect x="140" y="132.0" width="121.8" height="22" rx="2" fill="#E45756"/>
  <text x="265.8" y="147.0" class="value">1,050</text>
  <rect x="140" y="158.0" width="66.1" height="22" rx="2" fill="#54A24B"/>
  <text x="210.1" y="173.0" class="value">569</text>
  <text x="130" y="254.0" text-anchor="end" class="label">LogRecord</text>
  <rect x="140" y="200.0" width="481.3" height="22" rx="2" fill="#4C78A8"/>
  <text x="625.3" y="215.0" class="value">4,148</text>
  <rect x="140" y="226.0" width="366.9" height="22" rx="2" fill="#F58518"/>
  <text x="510.9" y="241.0" class="value">3,163</text>
  <rect x="140" y="252.0" width="199.2" height="22" rx="2" fill="#E45756"/>
  <text x="343.2" y="267.0" class="value">1,716</text>
  <rect x="140" y="278.0" width="35.8" height="22" rx="2" fill="#54A24B"/>
  <text x="179.8" y="293.0" class="value">308</text>
  <text x="130" y="374.0" text-anchor="end" class="label">AnalyticsEvent</text>
  <rect x="140" y="320.0" width="77.9" height="22" rx="2" fill="#4C78A8"/>
  <text x="221.9" y="335.0" class="value">671</text>
  <rect x="140" y="346.0" width="42.9" height="22" rx="2" fill="#F58518"/>
  <text x="186.9" y="361.0" class="value">369</text>
  <rect x="140" y="372.0" width="59.9" height="22" rx="2" fill="#E45756"/>
  <text x="203.9" y="387.0" class="value">516</text>
  <rect x="140" y="398.0" width="18.8" height="22" rx="2" fill="#54A24B"/>
  <text x="162.8" y="413.0" class="value">161</text>
  <text x="130" y="494.0" text-anchor="end" class="label">GoogleMessage1</text>
  <rect x="140" y="440.0" width="295.0" height="22" rx="2" fill="#4C78A8"/>
  <text x="439.0" y="455.0" class="value">2,543</text>
  <rect x="140" y="466.0" width="216.4" height="22" rx="2" fill="#F58518"/>
  <text x="360.4" y="481.0" class="value">1,865</text>
  <rect x="140" y="492.0" width="102.3" height="22" rx="2" fill="#E45756"/>
  <text x="246.3" y="507.0" class="value">881</text>
  <rect x="140" y="518.0" width="42.5" height="22" rx="2" fill="#54A24B"/>
  <text x="186.5" y="533.0" class="value">366</text>
</svg>
