<svg xmlns="http://www.w3.org/2000/svg" width="800" height="679" viewBox="0 0 800 679">
  <style>
    text { font-family: -apple-system, BlinkMacSystemFont, "Segoe UI", Helvetica, Arial, sans-serif; }
    .title { font-size: 16px; font-weight: 600; fill: #24292f; }
    .label { font-size: 12px; fill: #24292f; }
    .value { font-size: 11px; fill: #57606a; }
    .axis-label { font-size: 11px; fill: #57606a; }
    .legend-text { font-size: 12px; fill: #24292f; }
    .grid { stroke: #d0d7de; stroke-width: 0.5; }
  </style>
  <rect width="100%" height="100%" fill="white"/>
  <text x="400.0" y="25" text-anchor="middle" class="title">Binary Decode Throughput</text>
  <rect x="140" y="35" width="14" height="14" rx="2" fill="#4C78A8"/>
  <text x="158" y="46" class="legend-text">buffa</text>
  <rect x="209.5" y="35" width="14" height="14" rx="2" fill="#72B7B2"/>
  <text x="227.5" y="46" class="legend-text">buffa (view)</text>
  <rect x="331.5" y="35" width="14" height="14" rx="2" fill="#F58518"/>
  <text x="349.5" y="46" class="legend-text">prost</text>
  <rect x="401.0" y="35" width="14" height="14" rx="2" fill="#E45756"/>
  <text x="419.0" y="46" class="legend-text">protobuf-v4</text>
  <rect x="515.5" y="35" width="14" height="14" rx="2" fill="#54A24B"/>
  <text x="533.5" y="46" class="legend-text">Go</text>
  <line x1="140.0" y1="80" x2="140.0" y2="644" class="grid"/>
  <text x="140.0" y="659" text-anchor="middle" class="axis-label">0</text>
  <line x1="256.0" y1="80" x2="256.0" y2="644" class="grid"/>
  <text x="256.0" y="659" text-anchor="middle" class="axis-label">400</text>
  <line x1="372.0" y1="80" x2="372.0" y2="644" class="grid"/>
  <text x="372.0" y="659" text-anchor="middle" class="axis-label">800</text>
  <line x1="488.0" y1="80" x2="488.0" y2="644" class="grid"/>
  <text x="488.0" y="659" text-anchor="middle" class="axis-label">1.2k</text>
  <line x1="604.0" y1="80" x2="604.0" y2="644" class="grid"/>
  <text x="604.0" y="659" text-anchor="middle" class="axis-label">1.6k</text>
  <line x1="720.0" y1="80" x2="720.0" y2="644" class="grid"/>
  <text x="720.0" y="659" text-anchor="middle" class="axis-label">2.0k</text>
  <text x="430.0" y="674" text-anchor="middle" class="axis-label">MiB/s</text>
  <text x="130" y="147.0" text-anchor="end" class="label">ApiResponse</text>
  <rect x="140" y="80.0" width="220.9" height="22" rx="2" fill="#4C78A8"/>
  <text x="364.9" y="95.0" class="value">761</text>
  <rect x="140" y="106.0" width="361.1" height="22" rx="2" fill="#72B7B2"/>
  <text x="505.1" y="121.0" class="value">1,245</text>
  <rect x="140" y="132.0" width="225.3" height="22" rx="2" fill="#F58518"/>
  <text x="369.3" y="147.0" class="value">777</text>
  <rect x="140" y="158.0" width="208.8" height="22" rx="2" fill="#E45756"/>
  <text x="352.8" y="173.0" class="value">720</text>
  <rect x="140" y="184.0" width="80.2" height="22" rx="2" fill="#54A24B"/>
  <text x="224.2" y="199.0" class="value">276</text>
  <text x="130" y="293.0" text-anchor="end" class="label">LogRecord</text>
  <rect x="140" y="226.0" width="199.9" height="22" rx="2" fill="#4C78A8"/>
  <text x="343.9" y="241.0" class="value">689</text>
  <rect x="140" y="252.0" width="513.9" height="22" rx="2" fill="#72B7B2"/>
  <text x="657.9" y="267.0" class="value">1,772</text>
  <rect x="140" y="278.0" width="200.8" height="22" rx="2" fill="#F58518"/>
  <text x="344.8" y="293.0" class="value">692</text>
  <rect x="140" y="304.0" width="255.7" height="22" rx="2" fill="#E45756"/>
  <text x="399.7" y="319.0" class="value">881</text>
  <rect x="140" y="330.0" width="72.7" height="22" rx="2" fill="#54A24B"/>
  <text x="216.7" y="345.0" class="value">250</text>
  <text x="130" y="439.0" text-anchor="end" class="label">AnalyticsEvent</text>
  <rect x="140" y="372.0" width="54.6" height="22" rx="2" fill="#4C78A8"/>
  <text x="198.6" y="387.0" class="value">188</text>
  <rect x="140" y="398.0" width="89.0" height="22" rx="2" fill="#72B7B2"/>
  <text x="233.0" y="413.0" class="value">306</text>
  <rect x="140" y="424.0" width="74.9" height="22" rx="2" fill="#F58518"/>
  <text x="218.9" y="439.0" class="value">258</text>
  <rect x="140" y="450.0" width="105.5" height="22" rx="2" fill="#E45756"/>
  <text x="249.5" y="465.0" class="value">363</text>
  <rect x="140" y="476.0" width="26.8" height="22" rx="2" fill="#54A24B"/>
  <text x="170.8" y="491.0" class="value">92</text>
  <text x="130" y="585.0" text-anchor="end" class="label">GoogleMessage1</text>
  <rect x="140" y="518.0" width="232.2" height="22" rx="2" fill="#4C78A8"/>
  <text x="376.2" y="533.0" class="value">800</text>
  <rect x="140" y="544.0" width="316.9" height="22" rx="2" fill="#72B7B2"/>
  <text x="460.9" y="559.0" class="value">1,092</text>
  <rect x="140" y="570.0" width="290.3" height="22" rx="2" fill="#F58518"/>
  <text x="434.3" y="585.0" class="value">1,001</text>
  <rect x="140" y="596.0" width="191.2" height="22" rx="2" fill="#E45756"/>
  <text x="335.2" y="611.0" class="value">659</text>
  <rect x="140" y="622.0" width="101.8" height="22" rx="2" fill="#54A24B"/>
  <text x="245.8" y="637.0" class="value">351</text>
</svg>
