<svg xmlns="http://www.w3.org/2000/svg" width="800" height="471" viewBox="0 0 800 471">
  <style>
    text { font-family: -apple-system, BlinkMacSystemFont, "Segoe UI", Helvetica, Arial, sans-serif; }
    .title { font-size: 16px; font-weight: 600; fill: #24292f; }
    .label { font-size: 12px; fill: #24292f; }
    .value { font-size: 11px; fill: #57606a; }
    .axis-label { font-size: 11px; fill: #57606a; }
    .legend-text { font-size: 12px; fill: #24292f; }
    .grid { stroke: #d0d7de; stroke-width: 0.5; }
  </style>
  <rect width="100%" height="100%" fill="white"/>
  <text x="400.0" y="25" text-anchor="middle" class="title">JSON Decode Throughput</text>
  <rect x="140" y="35" width="14" height="14" rx="2" fill="#4C78A8"/>
  <text x="158" y="46" class="legend-text">buffa</text>
  <rect x="209.5" y="35" width="14" height="14" rx="2" fill="#F58518"/>
  <text x="227.5" y="46" class="legend-text">prost</text>
  <rect x="279.0" y="35" width="14" height="14" rx="2" fill="#54A24B"/>
  <text x="297.0" y="46" class="legend-text">Go</text>
  <line x1="140.0" y1="80" x2="140.0" y2="436" class="grid"/>
  <text x="140.0" y="451" text-anchor="middle" class="axis-label">0</text>
  <line x1="256.0" y1="80" x2="256.0" y2="436" class="grid"/>
  <text x="256.0" y="451" text-anchor="middle" class="axis-label">160</text>
  <line x1="372.0" y1="80" x2="372.0" y2="436" class="grid"/>
  <text x="372.0" y="451" text-anchor="middle" class="axis-label">320</text>
  <line x1="488.0" y1="80" x2="488.0" y2="436" class="grid"/>
  <text x="488.0" y="451" text-anchor="middle" class="axis-label">480</text>
  <line x1="604.0" y1="80" x2="604.0" y2="436" class="grid"/>
  <text x="604.0" y="451" text-anchor="middle" class="axis-label">640</text>
  <line x1="720.0" y1="80" x2="720.0" y2="436" class="grid"/>
  <text x="720.0" y="451" text-anchor="middle" class="axis-label">800</text>
  <text x="430.0" y="466" text-anchor="middle" class="axis-label">MiB/s</text>
  <text x="130" y="121.0" text-anchor="end" class="label">ApiResponse</text>
  <rect x="140" y="80.0" width="522.5" height="22" rx="2" fill="#4C78A8"/>
  <text x="666.5" y="95.0" class="value">720</text>
  <rect x="140" y="106.0" width="216.8" height="22" rx="2" fill="#F58518"/>
  <text x="360.8" y="121.0" class="value">298</text>
  <rect x="140" y="132.0" width="51.8" height="22" rx="2" fill="#54A24B"/>
  <text x="195.8" y="147.0" class="value">71</text>
  <text x="130" y="215.0" text-anchor="end" class="label">LogRecord</text>
  <rect x="140" y="174.0" width="565.7" height="22" rx="2" fill="#4C78A8"/>
  <text x="709.7" y="189.0" class="value">780</text>
  <rect x="140" y="200.0" width="503.0" height="22" rx="2" fill="#F58518"/>
  <text x="647.0" y="215.0" class="value">693</text>
  <rect x="140" y="226.0" width="80.9" height="22" rx="2" fill="#54A24B"/>
  <text x="224.9" y="241.0" class="value">111</text>
  <text x="130" y="309.0" text-anchor="end" class="label">AnalyticsEvent</text>
  <rect x="140" y="268.0" width="196.9" height="22" rx="2" fill="#4C78A8"/>
  <text x="340.9" y="283.0" class="value">271</text>
  <rect x="140" y="294.0" width="173.1" height="22" rx="2" fill="#F58518"/>
  <text x="317.1" y="309.0" class="value">238</text>
  <rect x="140" y="320.0" width="34.0" height="22" rx="2" fill="#54A24B"/>
  <text x="178.0" y="335.0" class="value">46</text>
  <text x="130" y="403.0" text-anchor="end" class="label">GoogleMessage1</text>
  <rect x="140" y="362.0" width="460.0" height="22" rx="2" fill="#4C78A8"/>
  <text x="604.0" y="377.0" class="value">634</text>
  <rect x="140" y="388.0" width="183.7" height="22" rx="2" fill="#F58518"/>
  <text x="327.7" y="403.0" class="value">253</text>
  <rect x="140" y="414.0" width="53.6" height="22" rx="2" fill="#54A24B"/>
  <text x="197.6" y="429.0" class="value">73</text>
</svg>
